<mxfile host="app.diagrams.net" agent="Mozilla/5.0 (Macintosh; Intel Mac OS X 10_15_7) AppleWebKit/537.36 (KHTML, like Gecko) Chrome/132.0.0.0 Safari/537.36" version="26.0.13">
  <diagram name="Page-1" id="UlDoWZxu-9f_f8u_j0Yc">
    <mxGraphModel dx="1004" dy="609" grid="0" gridSize="10" guides="1" tooltips="1" connect="1" arrows="1" fold="1" page="0" pageScale="1" pageWidth="1100" pageHeight="850" math="0" shadow="0">
      <root>
        <mxCell id="0" />
        <mxCell id="1" parent="0" />
        <mxCell id="W_sfDYXOPDdSJqehdhN7-1" value="S3 BUCKET&lt;div&gt;FRONTEND&lt;/div&gt;" style="sketch=0;points=[[0,0,0],[0.25,0,0],[0.5,0,0],[0.75,0,0],[1,0,0],[0,1,0],[0.25,1,0],[0.5,1,0],[0.75,1,0],[1,1,0],[0,0.25,0],[0,0.5,0],[0,0.75,0],[1,0.25,0],[1,0.5,0],[1,0.75,0]];outlineConnect=0;fontColor=#232F3E;fillColor=#7AA116;strokeColor=#ffffff;dashed=0;verticalLabelPosition=bottom;verticalAlign=top;align=center;html=1;fontSize=12;fontStyle=1;aspect=fixed;shape=mxgraph.aws4.resourceIcon;resIcon=mxgraph.aws4.s3;" parent="1" vertex="1">
          <mxGeometry x="672" y="301" width="78" height="78" as="geometry" />
        </mxCell>
        <mxCell id="W_sfDYXOPDdSJqehdhN7-2" value="CLOUDFRONT" style="sketch=0;points=[[0,0,0],[0.25,0,0],[0.5,0,0],[0.75,0,0],[1,0,0],[0,1,0],[0.25,1,0],[0.5,1,0],[0.75,1,0],[1,1,0],[0,0.25,0],[0,0.5,0],[0,0.75,0],[1,0.25,0],[1,0.5,0],[1,0.75,0]];outlineConnect=0;fontColor=#232F3E;fillColor=#8C4FFF;strokeColor=#ffffff;dashed=0;verticalLabelPosition=bottom;verticalAlign=top;align=center;html=1;fontSize=12;fontStyle=1;aspect=fixed;shape=mxgraph.aws4.resourceIcon;resIcon=mxgraph.aws4.cloudfront;" parent="1" vertex="1">
          <mxGeometry x="455" y="301" width="78" height="78" as="geometry" />
        </mxCell>
        <mxCell id="zxTIT12g4zk-GnwM7Ndl-6" style="edgeStyle=orthogonalEdgeStyle;rounded=0;orthogonalLoop=1;jettySize=auto;html=1;" edge="1" parent="1" source="W_sfDYXOPDdSJqehdhN7-6" target="zxTIT12g4zk-GnwM7Ndl-4">
          <mxGeometry relative="1" as="geometry" />
        </mxCell>
        <mxCell id="W_sfDYXOPDdSJqehdhN7-6" value="USERS" style="sketch=0;outlineConnect=0;fontColor=#232F3E;gradientColor=none;fillColor=#232F3D;strokeColor=none;dashed=0;verticalLabelPosition=top;verticalAlign=bottom;align=center;html=1;fontSize=12;fontStyle=1;aspect=fixed;pointerEvents=1;shape=mxgraph.aws4.users;labelPosition=center;" parent="1" vertex="1">
          <mxGeometry x="166" y="150" width="78" height="78" as="geometry" />
        </mxCell>
        <mxCell id="W_sfDYXOPDdSJqehdhN7-8" style="edgeStyle=orthogonalEdgeStyle;rounded=0;orthogonalLoop=1;jettySize=auto;html=1;entryX=0;entryY=0.5;entryDx=0;entryDy=0;entryPerimeter=0;" parent="1" source="W_sfDYXOPDdSJqehdhN7-2" target="W_sfDYXOPDdSJqehdhN7-1" edge="1">
          <mxGeometry relative="1" as="geometry" />
        </mxCell>
        <mxCell id="W_sfDYXOPDdSJqehdhN7-11" value="AWS Account" style="points=[[0,0],[0.25,0],[0.5,0],[0.75,0],[1,0],[1,0.25],[1,0.5],[1,0.75],[1,1],[0.75,1],[0.5,1],[0.25,1],[0,1],[0,0.75],[0,0.5],[0,0.25]];outlineConnect=0;gradientColor=none;html=1;whiteSpace=wrap;fontSize=12;fontStyle=0;container=0;pointerEvents=0;collapsible=0;recursiveResize=0;shape=mxgraph.aws4.group;grIcon=mxgraph.aws4.group_account;strokeColor=#CD2264;fillColor=none;verticalAlign=top;align=left;spacingLeft=30;fontColor=#CD2264;dashed=0;" parent="1" vertex="1">
          <mxGeometry x="328" y="73" width="482" height="401" as="geometry" />
        </mxCell>
        <mxCell id="zxTIT12g4zk-GnwM7Ndl-2" style="edgeStyle=orthogonalEdgeStyle;rounded=0;orthogonalLoop=1;jettySize=auto;html=1;exitX=0.25;exitY=1;exitDx=0;exitDy=0;exitPerimeter=0;entryX=0.25;entryY=0;entryDx=0;entryDy=0;entryPerimeter=0;dashed=1;" edge="1" parent="1" source="zxTIT12g4zk-GnwM7Ndl-1" target="W_sfDYXOPDdSJqehdhN7-2">
          <mxGeometry relative="1" as="geometry" />
        </mxCell>
        <mxCell id="zxTIT12g4zk-GnwM7Ndl-3" style="edgeStyle=orthogonalEdgeStyle;rounded=0;orthogonalLoop=1;jettySize=auto;html=1;entryX=0.75;entryY=0;entryDx=0;entryDy=0;entryPerimeter=0;" edge="1" parent="1" source="W_sfDYXOPDdSJqehdhN7-4" target="W_sfDYXOPDdSJqehdhN7-2">
          <mxGeometry relative="1" as="geometry">
            <Array as="points">
              <mxPoint x="614" y="247" />
              <mxPoint x="513" y="247" />
            </Array>
          </mxGeometry>
        </mxCell>
        <mxCell id="zxTIT12g4zk-GnwM7Ndl-4" value="HW DOMAIN" style="shape=image;verticalLabelPosition=bottom;labelBackgroundColor=default;verticalAlign=top;aspect=fixed;imageAspect=0;image=https://res-static.hc-cdn.cn/cloudbu-site/public/new-product-icon/BusinessApplications/DNS.png;fontStyle=1" vertex="1" parent="1">
          <mxGeometry x="165.9968421052631" y="301.00368421052633" width="78" height="78" as="geometry" />
        </mxCell>
        <mxCell id="zxTIT12g4zk-GnwM7Ndl-5" style="edgeStyle=orthogonalEdgeStyle;rounded=0;orthogonalLoop=1;jettySize=auto;html=1;entryX=0;entryY=0.5;entryDx=0;entryDy=0;entryPerimeter=0;" edge="1" parent="1" source="zxTIT12g4zk-GnwM7Ndl-4" target="W_sfDYXOPDdSJqehdhN7-2">
          <mxGeometry relative="1" as="geometry" />
        </mxCell>
        <mxCell id="W_sfDYXOPDdSJqehdhN7-4" value="ACM" style="sketch=0;points=[[0,0,0],[0.25,0,0],[0.5,0,0],[0.75,0,0],[1,0,0],[0,1,0],[0.25,1,0],[0.5,1,0],[0.75,1,0],[1,1,0],[0,0.25,0],[0,0.5,0],[0,0.75,0],[1,0.25,0],[1,0.5,0],[1,0.75,0]];outlineConnect=0;fontColor=#232F3E;fillColor=#DD344C;strokeColor=#ffffff;dashed=0;verticalLabelPosition=top;verticalAlign=bottom;align=center;html=1;fontSize=12;fontStyle=1;aspect=fixed;shape=mxgraph.aws4.resourceIcon;resIcon=mxgraph.aws4.certificate_manager_3;labelPosition=center;" parent="1" vertex="1">
          <mxGeometry x="575" y="135" width="78" height="78" as="geometry" />
        </mxCell>
        <mxCell id="zxTIT12g4zk-GnwM7Ndl-1" value="WAF" style="sketch=0;points=[[0,0,0],[0.25,0,0],[0.5,0,0],[0.75,0,0],[1,0,0],[0,1,0],[0.25,1,0],[0.5,1,0],[0.75,1,0],[1,1,0],[0,0.25,0],[0,0.5,0],[0,0.75,0],[1,0.25,0],[1,0.5,0],[1,0.75,0]];outlineConnect=0;fontColor=#232F3E;fillColor=#DD344C;strokeColor=#ffffff;dashed=0;verticalLabelPosition=top;verticalAlign=bottom;align=center;html=1;fontSize=12;fontStyle=1;aspect=fixed;shape=mxgraph.aws4.resourceIcon;resIcon=mxgraph.aws4.waf;labelPosition=center;" vertex="1" parent="1">
          <mxGeometry x="455" y="135" width="78" height="78" as="geometry" />
        </mxCell>
        <mxCell id="zxTIT12g4zk-GnwM7Ndl-7" value="RULES" style="sketch=0;outlineConnect=0;fontColor=#232F3E;gradientColor=none;fillColor=#DD344C;strokeColor=none;dashed=0;verticalLabelPosition=top;verticalAlign=bottom;align=center;html=1;fontSize=12;fontStyle=1;aspect=fixed;pointerEvents=1;shape=mxgraph.aws4.waf_rule;labelPosition=center;" vertex="1" parent="1">
          <mxGeometry x="396" y="155" width="38" height="38" as="geometry" />
        </mxCell>
        <mxCell id="zxTIT12g4zk-GnwM7Ndl-8" style="edgeStyle=orthogonalEdgeStyle;rounded=0;orthogonalLoop=1;jettySize=auto;html=1;entryX=0;entryY=0.5;entryDx=0;entryDy=0;entryPerimeter=0;" edge="1" parent="1" source="zxTIT12g4zk-GnwM7Ndl-7" target="zxTIT12g4zk-GnwM7Ndl-1">
          <mxGeometry relative="1" as="geometry" />
        </mxCell>
        <mxCell id="zxTIT12g4zk-GnwM7Ndl-9" value="SITE DRP&amp;nbsp;https://www.sem2.gob.cl/" style="text;html=1;align=center;verticalAlign=middle;whiteSpace=wrap;rounded=0;fontStyle=1;fontSize=18;" vertex="1" parent="1">
          <mxGeometry x="403" y="21" width="332" height="30" as="geometry" />
        </mxCell>
      </root>
    </mxGraphModel>
  </diagram>
</mxfile>
